<?xml version="1.0" standalone="no"?><!DOCTYPE svg PUBLIC "-//W3C//DTD SVG 1.1//EN" "http://www.w3.org/Graphics/SVG/1.1/DTD/svg11.dtd"><svg t="1673599574920" class="icon" viewBox="0 0 1024 1024" version="1.1" xmlns="http://www.w3.org/2000/svg" p-id="7712" xmlns:xlink="http://www.w3.org/1999/xlink" width="200" height="200"><path d="M256 298.666667a170.666667 170.666667 0 0 0 0 341.333333h512a170.666667 170.666667 0 0 0 0-341.333333H256m0-85.333334h512a256 256 0 0 1 0 512H256a256 256 0 0 1 0-512z" fill="#516280" p-id="7713"></path><path d="M256 426.666667m42.666667 0l426.666666 0q42.666667 0 42.666667 42.666666l0 0q0 42.666667-42.666667 42.666667l-426.666666 0q-42.666667 0-42.666667-42.666667l0 0q0-42.666667 42.666667-42.666666Z" fill="#516280" p-id="7714"></path><path d="M676.181333 633.130667a42.282667 42.282667 0 0 0-24.618666 7.381333 46.933333 46.933333 0 0 0-44.672-35.114667 49.621333 49.621333 0 0 0-26.026667 7.381334 46.549333 46.549333 0 0 0-68.949333-26.325334v-109.994666a48.042667 48.042667 0 0 0-46.933334-49.877334 49.322667 49.322667 0 0 0-48.554666 49.877334v252.8l-29.866667-30.165334a49.706667 49.706667 0 0 0-68.608 0 53.290667 53.290667 0 0 0-3.925333 74.069334l136.192 140.458666a43.178667 43.178667 0 0 0 9.173333 7.04 155.392 155.392 0 0 0 113.322667 32.64c137.557333 0 150.272-76.544 150.272-170.666666v-99.584a47.36 47.36 0 0 0-46.933334-49.877334z" fill="#007BFC" p-id="7715"></path></svg>