<?xml version="1.0" standalone="no"?><!DOCTYPE svg PUBLIC "-//W3C//DTD SVG 1.1//EN" "http://www.w3.org/Graphics/SVG/1.1/DTD/svg11.dtd"><svg t="1672118407165" class="icon" viewBox="0 0 1024 1024" version="1.1" xmlns="http://www.w3.org/2000/svg" p-id="15466" xmlns:xlink="http://www.w3.org/1999/xlink" width="200" height="200"><path d="M298.666667 554.666667l-4.992 0.298666A42.666667 42.666667 0 0 0 256 597.333333v85.333334h42.666667a42.666667 42.666667 0 0 1 42.368 37.674666L341.333333 725.333333v170.666667a42.666667 42.666667 0 0 1-42.666666 42.666667H128a42.666667 42.666667 0 0 1-42.666667-42.666667v-170.666667a42.666667 42.666667 0 0 1 42.666667-42.666666h42.666667v-85.333334l0.213333-7.509333A128 128 0 0 1 298.666667 469.333333h170.666666V341.333333H341.333333a42.666667 42.666667 0 0 1-42.368-37.674666L298.666667 298.666667V128a42.666667 42.666667 0 0 1 42.666666-42.666667h341.333334a42.666667 42.666667 0 0 1 42.666666 42.666667v170.666667a42.666667 42.666667 0 0 1-42.666666 42.666666h-128v128h170.666666a128 128 0 0 1 127.786667 120.490667L853.333333 597.333333v85.333334h42.666667a42.666667 42.666667 0 0 1 42.368 37.674666L938.666667 725.333333v170.666667a42.666667 42.666667 0 0 1-42.666667 42.666667h-170.666667a42.666667 42.666667 0 0 1-42.666666-42.666667v-170.666667a42.666667 42.666667 0 0 1 42.666666-42.666666h42.666667v-85.333334a42.666667 42.666667 0 0 0-37.674667-42.368L725.333333 554.666667H298.666667z" fill="#979797" p-id="15467"></path></svg>