<?xml version="1.0" standalone="no"?><!DOCTYPE svg PUBLIC "-//W3C//DTD SVG 1.1//EN" "http://www.w3.org/Graphics/SVG/1.1/DTD/svg11.dtd"><svg t="1673923309244" class="icon" viewBox="0 0 1064 1024" version="1.1" xmlns="http://www.w3.org/2000/svg" p-id="2909" xmlns:xlink="http://www.w3.org/1999/xlink" width="207.8125" height="200"><path d="M495.73888 195.91168a30.72 30.72 0 0 0-55.37792 2.2528L139.22304 900.79232a51.2 51.2 0 0 1-94.12608-40.30464L346.23488 157.81888c44.07296-102.8096 187.63776-108.70784 240.0256-9.8304l104.12032 196.68992a51.2 51.2 0 1 1-90.5216 47.9232l-104.12032-196.68992zM779.75552 570.28608c-10.36288-26.46016-47.9232-25.84576-57.50784 0.86016l-131.31776 367.65696a51.2 51.2 0 0 1-96.41984-34.4064l131.31776-367.65696c41.3696-115.87584 204.26752-118.3744 249.2416-3.93216l145.408 370.0736a51.2 51.2 0 1 1-95.31392 37.43744l-145.408-370.03264z" fill="#1D1D1F" p-id="2910"></path><path d="M163.84 593.92c0-28.2624 22.9376-51.2 51.2-51.2h266.24a51.2 51.2 0 1 1 0 102.4h-266.24c-28.2624 0-51.2-22.9376-51.2-51.2zM573.44 778.24c0-28.2624 22.9376-51.2 51.2-51.2h266.24a51.2 51.2 0 1 1 0 102.4h-266.24c-28.2624 0-51.2-22.9376-51.2-51.2z" fill="#1D1D1F" p-id="2911"></path></svg>