<?xml version="1.0" standalone="no"?><!DOCTYPE svg PUBLIC "-//W3C//DTD SVG 1.1//EN" "http://www.w3.org/Graphics/SVG/1.1/DTD/svg11.dtd"><svg t="1672118196683" class="icon" viewBox="0 0 1024 1024" version="1.1" xmlns="http://www.w3.org/2000/svg" p-id="11694" xmlns:xlink="http://www.w3.org/1999/xlink" width="200" height="200"><path d="M290.1 63.9H96.7c-16.6 0-30 13.4-30 30V290c0 16.6 13.4 30 30 30h193.4c16.6 0 30-13.4 30-30V93.9c0-16.6-13.5-30-30-30zM290.1 385.3H96.7c-16.6 0-30 13.4-30 30v196.1c0 16.6 13.4 30 30 30h193.4c16.6 0 30-13.4 30-30V415.3c0-16.6-13.5-30-30-30zM290.1 703.6H96.7c-16.6 0-30 13.4-30 30v196.1c0 16.6 13.4 30 30 30h193.4c16.6 0 30-13.4 30-30V733.6c0-16.5-13.5-30-30-30zM607 63.8H413.7c-16.6 0-30 13.4-30 30V290c0 16.6 13.4 30 30 30H607c16.6 0 30-13.4 30-30V93.8c0-16.5-13.4-30-30-30zM607 385.3H413.7c-16.6 0-30 13.4-30 30v196.1c0 16.6 13.4 30 30 30H607c16.6 0 30-13.4 30-30V415.3c0-16.6-13.4-30-30-30zM607 703.6H413.7c-16.6 0-30 13.4-30 30v196.1c0 16.6 13.4 30 30 30H607c16.6 0 30-13.4 30-30V733.6c0-16.5-13.4-30-30-30zM927.9 63.8H734.6c-16.6 0-30 13.4-30 30V290c0 16.6 13.4 30 30 30H928c16.6 0 30-13.4 30-30V93.8c-0.1-16.5-13.5-30-30.1-30zM927.9 385.3H734.6c-16.6 0-30 13.4-30 30v196.1c0 16.6 13.4 30 30 30H928c16.6 0 30-13.4 30-30V415.3c-0.1-16.6-13.5-30-30.1-30zM927.9 703.6H734.6c-16.6 0-30 13.4-30 30v196.1c0 16.6 13.4 30 30 30H928c16.6 0 30-13.4 30-30V733.6c-0.1-16.5-13.5-30-30.1-30z" p-id="11695"></path></svg>