<?xml version="1.0" standalone="no"?><!DOCTYPE svg PUBLIC "-//W3C//DTD SVG 1.1//EN" "http://www.w3.org/Graphics/SVG/1.1/DTD/svg11.dtd"><svg t="1672117976925" class="icon" viewBox="0 0 1024 1024" version="1.1" xmlns="http://www.w3.org/2000/svg" p-id="7272" xmlns:xlink="http://www.w3.org/1999/xlink" width="200" height="200"><path d="M855.771429 153.6c-7.314286-7.314286-14.628571-21.942857-29.257143-29.257143-7.314286-7.314286-14.628571-21.942857-21.942857-29.257143-7.314286-14.628571-21.942857-21.942857-36.571429-21.942857H285.257143c-14.628571 0-29.257143 0-36.571429 7.314286-7.314286 7.314286-14.628571 7.314286-21.942857 14.628571l-21.942857 21.942857-36.571429 36.571429c-7.314286 14.628571-21.942857 29.257143-29.257142 43.885714h753.371428c-14.628571-14.628571-21.942857-29.257143-36.571428-43.885714z m7.314285 490.057143H160.914286c-29.257143 0-51.2 7.314286-65.828572 21.942857-14.628571 21.942857-21.942857 36.571429-21.942857 58.514286v138.971428c0 29.257143 7.314286 51.2 29.257143 65.828572 14.628571 14.628571 36.571429 21.942857 58.514286 21.942857h694.857143c29.257143 0 51.2-7.314286 65.828571-21.942857 14.628571-14.628571 21.942857-36.571429 21.942857-58.514286v-146.285714c0-21.942857-7.314286-43.885714-21.942857-58.514286-7.314286-14.628571-29.257143-21.942857-58.514286-21.942857zM585.142857 819.2c-7.314286 7.314286-7.314286 7.314286-14.628571 7.314286H460.8c-7.314286 0-14.628571 0-21.942857-7.314286 0-7.314286-7.314286-14.628571-7.314286-21.942857 0-7.314286 0-14.628571 7.314286-14.628572 7.314286-7.314286 7.314286-7.314286 21.942857-7.314285h102.4c7.314286 0 14.628571 0 14.628571 7.314285 7.314286 7.314286 7.314286 7.314286 7.314286 14.628572 7.314286 7.314286 0 14.628571 0 21.942857z m343.771429-519.314286c-14.628571-14.628571-36.571429-21.942857-65.828572-21.942857H160.914286c-29.257143 0-51.2 7.314286-65.828572 21.942857-14.628571 14.628571-21.942857 29.257143-21.942857 51.2v146.285715c0 21.942857 7.314286 43.885714 21.942857 58.514285 14.628571 14.628571 36.571429 21.942857 65.828572 21.942857h702.171428c29.257143 0 51.2-7.314286 65.828572-21.942857 14.628571-14.628571 21.942857-36.571429 21.942857-58.514285v-146.285715c0-21.942857-7.314286-36.571429-21.942857-51.2z m-365.714286 153.6H460.8c-7.314286 0-14.628571 0-14.628571-7.314285C438.857143 438.857143 438.857143 438.857143 431.542857 424.228571c0-7.314286 0-14.628571 7.314286-14.628571 7.314286-7.314286 7.314286-7.314286 21.942857-7.314286h102.4c7.314286 0 14.628571 0 14.628571 7.314286 7.314286 0 14.628571 7.314286 14.628572 14.628571-7.314286 21.942857-14.628571 29.257143-29.257143 29.257143z" p-id="7273"></path></svg>